<svg width="35" height="40" viewBox="0 0 35 40" fill="none" xmlns="http://www.w3.org/2000/svg">
<circle cx="19.1111" cy="20.1111" r="10.1111" transform="rotate(-180 19.1111 20.1111)" fill="#29315A"/>
<g filter="url(#filter0_d_1_482)">
<mask id="path-2-inside-1_1_482" fill="white">
<path d="M21.4444 15.3511L16.6371 20.1111L21.4444 24.8711L19.9645 26.3333L13.6667 20.1111L19.9645 13.8889L21.4444 15.3511Z"/>
</mask>
<path d="M21.4444 15.3511L16.6371 20.1111L21.4444 24.8711L19.9645 26.3333L13.6667 20.1111L19.9645 13.8889L21.4444 15.3511Z" fill="white"/>
<path d="M21.4444 15.3511L23.5552 17.4829L25.7106 15.3488L23.5529 13.217L21.4444 15.3511ZM16.6371 20.1111L14.5263 17.9793L12.3733 20.1111L14.5263 22.2429L16.6371 20.1111ZM21.4444 24.8711L23.5529 27.0052L25.7106 24.8734L23.5552 22.7393L21.4444 24.8711ZM19.9645 26.3333L17.856 28.4674L19.9645 30.5506L22.0729 28.4674L19.9645 26.3333ZM13.6667 20.1111L11.5582 17.977L9.39818 20.1111L11.5582 22.2452L13.6667 20.1111ZM19.9645 13.8889L22.0729 11.7548L19.9645 9.67164L17.856 11.7548L19.9645 13.8889ZM19.3336 13.2193L14.5263 17.9793L18.7479 22.2429L23.5552 17.4829L19.3336 13.2193ZM14.5263 22.2429L19.3336 27.0029L23.5552 22.7393L18.7479 17.9793L14.5263 22.2429ZM19.336 22.737L17.856 24.1993L22.0729 28.4674L23.5529 27.0052L19.336 22.737ZM22.0729 24.1993L15.7751 17.977L11.5582 22.2452L17.856 28.4674L22.0729 24.1993ZM15.7751 22.2452L22.0729 16.023L17.856 11.7548L11.5582 17.977L15.7751 22.2452ZM17.856 16.023L19.336 17.4852L23.5529 13.217L22.0729 11.7548L17.856 16.023Z" fill="white" mask="url(#path-2-inside-1_1_482)"/>
</g>
<defs>
<filter id="filter0_d_1_482" x="0.666672" y="0.888885" width="33.7778" height="38.4445" filterUnits="userSpaceOnUse" color-interpolation-filters="sRGB">
<feFlood flood-opacity="0" result="BackgroundImageFix"/>
<feColorMatrix in="SourceAlpha" type="matrix" values="0 0 0 0 0 0 0 0 0 0 0 0 0 0 0 0 0 0 127 0" result="hardAlpha"/>
<feOffset/>
<feGaussianBlur stdDeviation="6.5"/>
<feComposite in2="hardAlpha" operator="out"/>
<feColorMatrix type="matrix" values="0 0 0 0 0 0 0 0 0 0 0 0 0 0 0 0 0 0 0.25 0"/>
<feBlend mode="normal" in2="BackgroundImageFix" result="effect1_dropShadow_1_482"/>
<feBlend mode="normal" in="SourceGraphic" in2="effect1_dropShadow_1_482" result="shape"/>
</filter>
</defs>
</svg>
