<svg width="35" height="40" viewBox="0 0 35 40" fill="none" xmlns="http://www.w3.org/2000/svg">
<circle cx="15.8889" cy="20.1111" r="10.1111" fill="#29315A"/>
<g filter="url(#filter0_d_18_294)">
<mask id="path-2-inside-1_18_294" fill="white">
<path d="M13.5556 24.8711L18.3629 20.1111L13.5556 15.3511L15.0355 13.8889L21.3333 20.1111L15.0355 26.3333L13.5556 24.8711Z"/>
</mask>
<path d="M13.5556 24.8711L18.3629 20.1111L13.5556 15.3511L15.0355 13.8889L21.3333 20.1111L15.0355 26.3333L13.5556 24.8711Z" fill="white"/>
<path d="M13.5556 24.8711L11.4448 22.7393L9.28943 24.8734L11.4471 27.0052L13.5556 24.8711ZM18.3629 20.1111L20.4737 22.2429L22.6267 20.1111L20.4737 17.9793L18.3629 20.1111ZM13.5556 15.3511L11.4471 13.217L9.28943 15.3488L11.4448 17.4829L13.5556 15.3511ZM15.0355 13.8889L17.144 11.7548L15.0355 9.67162L12.9271 11.7548L15.0355 13.8889ZM21.3333 20.1111L23.4418 22.2452L25.6018 20.1111L23.4418 17.977L21.3333 20.1111ZM15.0355 26.3333L12.9271 28.4674L15.0355 30.5506L17.144 28.4674L15.0355 26.3333ZM15.6664 27.0029L20.4737 22.2429L16.2521 17.9793L11.4448 22.7393L15.6664 27.0029ZM20.4737 17.9793L15.6664 13.2193L11.4448 17.4829L16.2521 22.2429L20.4737 17.9793ZM15.664 17.4852L17.144 16.023L12.9271 11.7548L11.4471 13.217L15.664 17.4852ZM12.9271 16.023L19.2249 22.2452L23.4418 17.977L17.144 11.7548L12.9271 16.023ZM19.2249 17.977L12.9271 24.1992L17.144 28.4674L23.4418 22.2452L19.2249 17.977ZM17.144 24.1992L15.664 22.737L11.4471 27.0052L12.9271 28.4674L17.144 24.1992Z" fill="white" mask="url(#path-2-inside-1_18_294)"/>
</g>
<defs>
<filter id="filter0_d_18_294" x="0.555557" y="0.888885" width="33.7778" height="38.4444" filterUnits="userSpaceOnUse" color-interpolation-filters="sRGB">
<feFlood flood-opacity="0" result="BackgroundImageFix"/>
<feColorMatrix in="SourceAlpha" type="matrix" values="0 0 0 0 0 0 0 0 0 0 0 0 0 0 0 0 0 0 127 0" result="hardAlpha"/>
<feOffset/>
<feGaussianBlur stdDeviation="6.5"/>
<feComposite in2="hardAlpha" operator="out"/>
<feColorMatrix type="matrix" values="0 0 0 0 0 0 0 0 0 0 0 0 0 0 0 0 0 0 0.25 0"/>
<feBlend mode="normal" in2="BackgroundImageFix" result="effect1_dropShadow_18_294"/>
<feBlend mode="normal" in="SourceGraphic" in2="effect1_dropShadow_18_294" result="shape"/>
</filter>
</defs>
</svg>
